<?xml version="1.0" standalone="no"?>
<svg viewBox="0 0 200 200" xmlns="http://www.w3.org/2000/svg">
  <path fill="#F01327" d="M31.5,-47.4C40.8,-43.1,48.3,-34.3,55.9,-23.7C63.4,-13.2,71.1,-0.9,69.4,9.9C67.7,20.6,56.5,30,47.7,42.9C38.9,55.9,32.5,72.5,22.3,75.2C12,78,-2.2,66.8,-15.2,59.5C-28.1,52.1,-39.9,48.4,-49.1,40.9C-58.3,33.3,-64.9,21.8,-69.8,8.2C-74.6,-5.4,-77.7,-21.1,-73.6,-35C-69.5,-48.9,-58.2,-61,-44.8,-63.4C-31.3,-65.8,-15.7,-58.5,-2.3,-55C11.1,-51.5,22.2,-51.7,31.5,-47.4Z" transform="translate(100 100)" />
</svg>
